<svg width="32" height="32" viewBox="0 0 32 32" fill="none" xmlns="http://www.w3.org/2000/svg">
<path d="M4 21.3333L9.95956 15.3737C10.4123 14.9211 11.0264 14.6667 11.6667 14.6667C12.307 14.6667 12.921 14.9211 13.3737 15.3737L18.6667 20.6667M18.6667 20.6667L20.6667 22.6667M18.6667 20.6667L21.2929 18.0404C21.7456 17.5877 22.3597 17.3333 23 17.3333C23.6403 17.3333 24.2544 17.5877 24.7071 18.0404L28 21.3333" stroke="#171717" stroke-width="2" stroke-linecap="round" stroke-linejoin="round"/>
<path d="M16.0002 3.33334C10.3605 3.33334 7.5407 3.33334 5.67051 4.93064C5.40494 5.15745 5.1576 5.40478 4.93079 5.67036C3.3335 7.54054 3.3335 10.3604 3.3335 16C3.3335 21.6396 3.3335 24.4595 4.93079 26.3296C5.1576 26.5952 5.40494 26.8425 5.67051 27.0693C7.5407 28.6667 10.3605 28.6667 16.0002 28.6667C21.6398 28.6667 24.4596 28.6667 26.3298 27.0693C26.5954 26.8425 26.8427 26.5952 27.0695 26.3296C28.6668 24.4595 28.6668 21.6396 28.6668 16" stroke="#171717" stroke-width="2" stroke-linecap="round" stroke-linejoin="round"/>
<path d="M28.6663 8.00001H23.9997M23.9997 8.00001H19.333M23.9997 8.00001V3.33334M23.9997 8.00001V12.6667" stroke="#171717" stroke-width="2" stroke-linecap="round" stroke-linejoin="round"/>
</svg>
