<svg width="20" height="21" viewBox="0 0 20 21" fill="none" xmlns="http://www.w3.org/2000/svg">
<path d="M13.25 16.25C13.25 18.183 11.683 19.75 9.75 19.75C7.817 19.75 6.25 18.183 6.25 16.25" stroke="black" stroke-width="1.5" stroke-linecap="round" stroke-linejoin="round"/>
<path d="M16.9811 16.25H2.51887C1.54195 16.25 0.75 15.458 0.75 14.4811C0.75 14.012 0.93636 13.5621 1.26809 13.2303L1.87132 12.6271C2.43393 12.0645 2.75 11.3014 2.75 10.5058V7.75C2.75 3.88401 5.88401 0.75 9.75 0.75C13.616 0.75 16.75 3.884 16.75 7.75V10.5058C16.75 11.3014 17.0661 12.0645 17.6287 12.6271L18.2319 13.2303C18.5636 13.5621 18.75 14.012 18.75 14.4811C18.75 15.458 17.958 16.25 16.9811 16.25Z" stroke="black" stroke-width="1.5" stroke-linecap="round" stroke-linejoin="round"/>
</svg>
